# xmcd
#
# Track frame offsets:
#	150
#	16495
#	32125
#	50500
#	59582
#	77607
#	95402
#	114312
#	144307
#
# Disc length: 2131 seconds
#
# Revision: 1
# Processed by: cddbd v1.5.1PL0 Copyright (c) Steve Scherf et al.
# Submitted via: CDex 1.50Beta5
#
DISCID=70085109
DTITLE=OSAMU’S - 新日本プロレスII
DYEAR=1991
DGENRE=
TTITLE0=MUTA
TTITLE1=POWER
TTITLE2=SAMURAI
TTITLE3=Mr.B.D
TTITLE4=FANTASTIC CITY
TTITLE5=SOLITUDE
TTITLE6=LAST TARGET
TTITLE7=Dear,Venus!
TTITLE8=BEST BOUT
EXTD=
EXTT0=
EXTT1=
EXTT2=
EXTT3=
EXTT4=
EXTT5=
EXTT6=
EXTT7=
EXTT8=
PLAYORDER=
